:SAMPLES-PER-SECOND 30
:FULLY-SPECIFIED
:DEGREES
196
root  10.2403 36.069 -3.61087 9.43597 -71.1202 4.49973
RightUpLeg  -48.4736 -0.846717 4.39347
RightLeg  47.1245 -14.1912 -16.079
RightFoot  -7.57752 -0.0800324 0.936906
RightToes  5.82063e-011 0 -3.6325e-017
Spine  45.1801 -3.77839 7.58131
Spine1  -18.8841 -0.179491 -10.9284
HEad  -46.1491 -14.1449 4.94119
LeftShoulder1  -0.13714 1.51094 17.5026
LeftArm  103.982 -79.8339 170.031
LeftForeArm  150.152 -75.2995 -139.907
LeftHand  -0.946433 1.25287 26.3409
RightShoulder  0.803282 -8.04637 -29.452
RightArm  -116.864 65.1219 -63.522
RightForeArm  -3.85766 -5.83268 0.535984
RightHand  0.143451 -6.76806 -13.7694
LeftUpLeg  -50.4055 -15.6502 4.88163
LeftLeg  44.3236 6.46504 7.13686
LeftFoot  -5.47131 0.457265 -8.24606
LeftToes  -1.1369e-010 2.7689e-011 -1.90827e-011
197
root  10.1629 35.3894 -3.94893 8.84927 -68.8242 4.61658
RightUpLeg  -50.2335 -0.731782 3.94612
RightLeg  51.6733 -12.5827 -16.8078
RightFoot  -9.91293 -0.0988641 2.7444
RightToes  5.82063e-011 0 -3.6325e-017
Spine  46.4659 -3.33771 7.8158
Spine1  -20.242 0.45434 -10.5902
HEad  -46.7299 -14.5279 3.56564
LeftShoulder1  -0.15351 1.18793 17.252
LeftArm  105.879 -80.1661 167.731
LeftForeArm  150.687 -75.1478 -140.425
LeftHand  -0.949382 1.27729 26.5734
RightShoulder  1.1192 -9.36152 -31.0316
RightArm  -118.974 62.0342 -67.8
RightForeArm  -8.19044 -5.62004 -0.276913
RightHand  0.137697 -6.74118 -13.5711
LeftUpLeg  -51.9005 -14.8055 3.84731
LeftLeg  48.8118 5.85951 7.57849
LeftFoot  -8.53708 0.244851 -7.93138
LeftToes  -1.1369e-010 2.7689e-011 -1.90827e-011
198
root  10.1099 34.3911 -4.27313 9.10291 -66.7455 2.00952
RightUpLeg  -50.9599 -2.01961 5.53081
RightLeg  57.3428 -10.7603 -17.8674
RightFoot  -13.218 -0.0250927 4.07132
RightToes  5.82063e-011 0 -3.6325e-017
Spine  48.3332 -3.05406 8.2503
Spine1  -20.2982 1.02817 -9.22166
HEad  -46.9891 -13.456 2.44295
LeftShoulder1  -0.172547 0.646461 16.5641
LeftArm  102.134 -81.3602 171.944
LeftForeArm  151.357 -75.0466 -140.826
LeftHand  -0.935247 1.38468 26.8693
RightShoulder  1.03735 -8.84801 -31.2937
RightArm  -123.729 61.6793 -71.6941
RightForeArm  -8.93358 -5.52803 -0.722281
RightHand  0.119452 -6.57891 -13.6065
LeftUpLeg  -52.9818 -14.5634 4.17508
LeftLeg  55.3404 4.57709 7.58631
LeftFoot  -12.5119 -0.0104148 -8.17352
LeftToes  -1.1369e-010 2.7689e-011 -1.90827e-011
199
root  10.032 33.2557 -4.55016 9.88538 -65.4308 -1.95123
RightUpLeg  -51.1765 -3.95144 8.42352
RightLeg  63.0532 -9.04567 -19.1413
RightFoot  -16.5354 0.0729683 4.12572
RightToes  5.82063e-011 0 -3.6325e-017
Spine  49.755 -2.76952 8.8918
Spine1  -18.2962 1.71743 -8.09332
HEad  -47.3926 -11.2439 2.18057
LeftShoulder1  -0.174367 0.377687 16.0333
LeftArm  90.5251 -81.8988 -175.92
LeftForeArm  151.382 -75.0843 -140.729
LeftHand  -0.9195 1.46036 26.9211
RightShoulder  0.694901 -7.2974 -30.0172
RightArm  -130.359 64.1287 -74.6899
RightForeArm  -5.68435 -5.59722 -0.650263
RightHand  0.0785822 -6.18576 -14.1453
LeftUpLeg  -53.9373 -14.8136 5.76455
LeftLeg  62.2823 2.99783 6.82181
LeftFoot  -16.0507 -0.264166 -8.75267
LeftToes  -1.1369e-010 2.7689e-011 -1.90827e-011
200
root  9.87067 32.2846 -4.794 10.4258 -64.8297 -5.06244
RightUpLeg  -51.3521 -5.86145 11.0521
RightLeg  67.5991 -7.40587 -19.6938
RightFoot  -19.319 0.122825 3.63254
RightToes  5.82063e-011 0 -3.6325e-017
Spine  49.9827 -2.32703 9.27804
Spine1  -14.8125 2.55993 -8.34392
HEad  -47.9268 -9.16553 2.75719
LeftShoulder1  -0.155266 0.536135 15.64
LeftArm  75.7888 -80.7134 -160.491
LeftForeArm  150.104 -75.4232 -139.547
LeftHand  -0.924409 1.33771 26.2683
RightShoulder  0.302084 -5.34337 -27.6596
RightArm  -136.095 69.5871 -75.1201
RightForeArm  0.0101361 -5.82536 0.197905
RightHand  0.0636171 -6.01081 -14.965
LeftUpLeg  -54.7344 -15.2505 7.42759
LeftLeg  67.8508 1.92426 6.04245
LeftFoot  -18.5214 -0.46049 -9.10247
LeftToes  -1.1369e-010 2.7689e-011 -1.90827e-011
201
root  9.64328 31.7913 -5.07271 10.5334 -64.0824 -6.53394
RightUpLeg  -51.2343 -7.64408 12.7873
RightLeg  69.8123 -6.37918 -19.3833
RightFoot  -21.1208 0.152261 3.43734
RightToes  5.82063e-011 0 -3.6325e-017
Spine  49.2375 -1.79574 9.32702
Spine1  -11.6229 3.45411 -9.819
HEad  -48.4447 -8.40053 3.6411
LeftShoulder1  -0.130914 0.746343 15.0915
LeftArm  65.0027 -78.7377 -148.067
LeftForeArm  148.743 -75.8423 -138.051
LeftHand  -0.955473 0.966695 24.9214
RightShoulder  -0.0857401 -2.76577 -24.5799
RightArm  -134.666 77.4446 -67.8294
RightForeArm  6.52094 -6.11555 1.52862
RightHand  0.113428 -6.3701 -15.447
LeftUpLeg  -55.0265 -15.8816 8.6346
LeftLeg  70.6554 1.50322 5.71928
LeftFoot  -19.747 -0.55498 -9.14656
LeftToes  -1.1369e-010 2.7689e-011 -1.90827e-011
202
root  9.38255 31.915 -5.44196 10.9259 -62.237 -7.21765
RightUpLeg  -50.4943 -9.35613 14.1879
RightLeg  69.0503 -6.69116 -19.3771
RightFoot  -21.5326 0.152733 3.44042
RightToes  5.82063e-011 0 -3.6325e-017
Spine  48.4508 -1.27971 9.3656
Spine1  -9.77055 4.22993 -11.1438
HEad  -49.3825 -9.11342 4.33884
LeftShoulder1  -0.113573 0.748484 14.3772
LeftArm  59.2058 -77.6957 -139.622
LeftForeArm  148.854 -75.972 -137.676
LeftHand  -0.996461 0.529146 23.6852
RightShoulder  -0.368981 0.378443 -20.7905
RightArm  -96.365 84.1201 -24.6757
RightForeArm  12.6895 -6.38707 2.97288
RightHand  0.194261 -6.99407 -15.3917
LeftUpLeg  -54.7776 -16.9835 9.99578
LeftLeg  70.1627 1.36482 5.13277
LeftFoot  -19.6678 -0.550296 -9.16225
LeftToes  -1.1369e-010 2.7689e-011 -1.90827e-011
203
root  9.0853 32.5823 -5.89423 11.7046 -59.072 -7.49734
RightUpLeg  -49.0836 -10.6477 15.4712
RightLeg  65.5705 -8.64981 -20.4506
RightFoot  -20.521 0.0917111 3.25968
RightToes  5.82063e-011 0 -3.6325e-017
Spine  47.9749 -0.709181 9.23087
Spine1  -9.12939 4.71798 -11.1707
HEad  -50.9086 -10.5305 4.71752
LeftShoulder1  -0.103201 0.624609 13.762
LeftArm  57.8226 -78.2325 -135.678
LeftForeArm  149.747 -75.8309 -138.29
LeftHand  -1.01477 0.368631 23.3639
RightShoulder  -0.413281 3.15543 -16.8205
RightArm  -33.8551 81.6819 40.3216
RightForeArm  17.7542 -6.64915 4.54756
RightHand  0.265065 -7.53134 -15.4159
LeftUpLeg  -54.0675 -18.5595 11.7484
LeftLeg  66.5432 1.13897 3.66849
LeftFoot  -18.2819 -0.453558 -9.27133
LeftToes  -1.1369e-010 2.7689e-011 -1.90827e-011
204
root  8.73505 33.6066 -6.36778 12.2579 -55.1745 -6.8046
RightUpLeg  -47.2333 -11.0157 16.0305
RightLeg  60.329 -12.1028 -22.1676
RightFoot  -18.4698 0.0691358 3.07827
RightToes  5.82063e-011 0 -3.6325e-017
Spine  47.4707 -0.0250271 8.48534
Spine1  -9.21904 4.82433 -10.127
HEad  -52.0317 -11.826 5.05672
LeftShoulder1  -0.108023 0.357851 13.5857
LeftArm  59.9009 -79.6065 -136.351
LeftForeArm  149.501 -75.816 -138.283
LeftHand  -0.997325 0.565345 23.8827
RightShoulder  -0.312784 4.7599 -14.0099
RightArm  -18.7887 77.5677 56.0023
RightForeArm  20.9395 -6.86742 5.93639
RightHand  0.329117 -7.98102 -15.6363
LeftUpLeg  -52.8819 -20.1173 13.1865
LeftLeg  60.3753 0.585201 1.72728
LeftFoot  -15.7561 -0.267679 -9.37244
LeftToes  -1.1369e-010 2.7689e-011 -1.90827e-011
205
root  8.34478 34.753 -6.78776 12.3572 -51.1693 -4.90756
RightUpLeg  -45.3929 -10.489 15.4064
RightLeg  54.5633 -16.6838 -23.7774
RightFoot  -15.8926 0.017165 3.15928
RightToes  5.82063e-011 0 -3.6325e-017
Spine  46.6192 0.524793 7.21848
Spine1  -9.78957 4.47544 -9.15627
HEad  -51.6241 -12.7088 5.57488
LeftShoulder1  -0.134478 -0.0602948 13.9685
LeftArm  63.717 -80.7003 -140.037
LeftForeArm  148.004 -76.0941 -137.115
LeftHand  -0.971294 0.833606 24.5986
RightShoulder  -0.288278 5.13414 -13.5256
RightArm  -15.8202 76.3245 58.8436
RightForeArm  21.1587 -6.96178 6.51904
RightHand  0.371711 -8.29477 -15.668
LeftUpLeg  -51.3481 -21.1723 13.6074
LeftLeg  52.67 -0.488101 -0.195853
LeftFoot  -12.4149 -0.0134168 -9.28413
LeftToes  -1.1369e-010 2.7689e-011 -1.90827e-011
206
root  7.956 35.7842 -7.10705 12.3111 -47.2321 -2.39359
RightUpLeg  -44.054 -9.49531 13.8559
RightLeg  49.6327 -21.835 -25.386
RightFoot  -13.2328 -0.0328207 3.43898
RightToes  5.82063e-011 0 -3.6325e-017
Spine  45.7117 0.563994 6.14119
Spine1  -10.7828 3.72055 -9.08109
HEad  -49.8159 -13.2981 5.99167
LeftShoulder1  -0.172148 -0.350274 14.7798
LeftArm  67.3311 -81.2175 -144.536
LeftForeArm  146.946 -76.3366 -136.109
LeftHand  -0.960525 0.985862 25.1483
RightShoulder  -0.386713 4.39266 -15.3748
RightArm  -20.6395 78.206 52.7867
RightForeArm  18.3695 -6.93839 6.30289
RightHand  0.360253 -8.20934 -15.6632
LeftUpLeg  -49.8694 -21.6252 13.0196
LeftLeg  44.8473 -2.34179 -2.07126
LeftFoot  -8.66794 0.26085 -8.96718
LeftToes  -1.1369e-010 2.7689e-011 -1.90827e-011
207
root  7.6113 36.5374 -7.32696 12.2386 -43.3789 0.0856934
RightUpLeg  -43.3998 -8.39539 11.8386
RightLeg  46.569 -26.6665 -27.1454
RightFoot  -11.0863 -0.0826729 3.52185
RightToes  5.82063e-011 0 -3.6325e-017
Spine  45.1765 0.0218993 5.74436
Spine1  -12.0436 2.82144 -9.92481
HEad  -47.8132 -13.7116 5.83296
LeftShoulder1  -0.190813 -0.121297 15.6808
LeftArm  71.7968 -81.4797 -150.639
LeftForeArm  147.343 -76.2454 -136.49
LeftHand  -0.948614 1.14084 25.7251
RightShoulder  -0.466078 2.50111 -18.7032
RightArm  -44.1566 81.6406 26.0855
RightForeArm  14.4467 -6.82357 5.56426
RightHand  0.291614 -7.65436 -15.9203
LeftUpLeg  -48.6917 -21.6598 11.7014
LeftLeg  38.2409 -4.97956 -3.82655
LeftFoot  -5.09517 0.497959 -8.55567
LeftToes  -1.1369e-010 2.7689e-011 -1.90827e-011
